<?xml version="1.0" encoding="UTF-8" standalone="no"?>
<!-- Created with Inkscape (http://www.inkscape.org/) -->

<svg
   xmlns:dc="http://purl.org/dc/elements/1.1/"
   xmlns:cc="http://creativecommons.org/ns#"
   xmlns:rdf="http://www.w3.org/1999/02/22-rdf-syntax-ns#"
   xmlns:svg="http://www.w3.org/2000/svg"
   xmlns="http://www.w3.org/2000/svg"
   xmlns:sodipodi="http://sodipodi.sourceforge.net/DTD/sodipodi-0.dtd"
   xmlns:inkscape="http://www.inkscape.org/namespaces/inkscape"
   width="210.35532mm"
   height="210.17827mm"
   viewBox="0 0 210.35532 210.17827"
   version="1.1"
   id="svg8"
   inkscape:version="0.92.4 (5da689c313, 2019-01-14)"
   sodipodi:docname="logo.svg">
  <defs
     id="defs2" />
  <sodipodi:namedview
     id="base"
     pagecolor="#000000"
     bordercolor="#666666"
     borderopacity="1.0"
     inkscape:pageopacity="0"
     inkscape:pageshadow="2"
     inkscape:zoom="1.6987136"
     inkscape:cx="598.04569"
     inkscape:cy="333.15302"
     inkscape:document-units="mm"
     inkscape:current-layer="layer1"
     showgrid="false"
     inkscape:window-width="2560"
     inkscape:window-height="1377"
     inkscape:window-x="-8"
     inkscape:window-y="-8"
     inkscape:window-maximized="1"
     fit-margin-top="0"
     fit-margin-left="0"
     fit-margin-right="0"
     fit-margin-bottom="0" />
  <metadata
     id="metadata5">
    <rdf:RDF>
      <cc:Work
         rdf:about="">
        <dc:format>image/svg+xml</dc:format>
        <dc:type
           rdf:resource="http://purl.org/dc/dcmitype/StillImage" />
        <dc:title></dc:title>
      </cc:Work>
    </rdf:RDF>
  </metadata>
  <g
     inkscape:label="Ebene 1"
     inkscape:groupmode="layer"
     id="layer1"
     transform="translate(0.1770545,-87.10287)">
    <circle
       style="opacity:1;fill:#99a7dd;fill-opacity:1;fill-rule:nonzero;stroke:none;stroke-width:0.79434884;stroke-linecap:square;stroke-linejoin:bevel;stroke-miterlimit:9.76470566;stroke-dasharray:none;stroke-dashoffset:0;stroke-opacity:1;paint-order:stroke fill markers"
       id="path815"
       cx="104.90723"
       cy="192.09264"
       r="104.90723" />
    <path
       style="opacity:1;fill:#accf9e;fill-opacity:1;fill-rule:nonzero;stroke:none;stroke-width:0.79442972;stroke-linecap:square;stroke-linejoin:bevel;stroke-miterlimit:9.76470566;stroke-dasharray:none;stroke-dashoffset:0;stroke-opacity:1;paint-order:stroke fill markers"
       d="M 0.00426869,192.68153 A 104.92857,104.90722 0 0 0 104.91149,296.99955 104.92857,104.90722 0 0 0 209.81019,192.68153 Z"
       id="path815-4"
       inkscape:connector-curvature="0" />
    <g
       id="Icons"
       transform="matrix(2.8426395,0,0,2.8402468,-31.446089,55.860155)">
      <path
         id="path839"
         d="m 48,11 v 0 C 27.6,11 11,27.6 11,48 11,68.4 27.6,85 48,85 68.4,85 85,68.4 85,48 85,27.6 68.4,11 48,11 Z M 83,47 H 67 C 66.7,33.5 60.8,20.9 51.2,13.2 68.8,14.8 82.4,29.3 83,47 Z M 47,47 H 31 C 31.3,33.6 37.3,21.2 47,14 Z m 0,2 V 82 C 37.3,74.7 31.3,62.3 31,49 Z m 2,0 H 65 C 64.7,62.4 58.7,74.8 49,82 Z m 0,-2 V 14 c 9.7,7.3 15.7,19.7 16,33 z M 44.8,13.2 C 35.2,20.9 29.3,33.5 29,47 H 13 C 13.6,29.3 27.2,14.8 44.8,13.2 Z M 13,49 H 29 C 29.3,62.5 35.2,75.1 44.8,82.8 27.2,81.2 13.6,66.7 13,49 Z M 51.2,82.8 C 60.8,75.1 66.7,62.5 67,49 h 16 c -0.5,17.5 -13.8,31.9 -31.1,33.8 -0.3,0 -0.7,0 -0.7,0 z"
         inkscape:connector-curvature="0" />
    </g>
    <text
       xml:space="preserve"
       style="font-style:normal;font-variant:normal;font-weight:normal;font-stretch:normal;font-size:256.26593018px;line-height:125%;font-family:Calibri;-inkscape-font-specification:'Calibri, Normal';font-variant-ligatures:normal;font-variant-caps:normal;font-variant-numeric:normal;font-feature-settings:normal;text-align:start;letter-spacing:0px;word-spacing:0px;writing-mode:lr-tb;text-anchor:start;fill:#ffffff;fill-opacity:1;stroke:#000000;stroke-width:2.60202956;stroke-linecap:butt;stroke-linejoin:miter;stroke-miterlimit:4;stroke-dasharray:none;stroke-opacity:1"
       x="19.738785"
       y="288.83453"
       id="text837-3"
       transform="scale(1.0852491,0.92144744)"><tspan
         sodipodi:role="line"
         id="tspan835-8"
         x="19.738785"
         y="288.83453"
         style="fill:#ffffff;fill-opacity:1;stroke:#000000;stroke-width:2.60202956;stroke-miterlimit:4;stroke-dasharray:none;stroke-opacity:1">C</tspan></text>
  </g>
</svg>
